<svg xmlns:svg="http://www.w3.org/2000/svg" xmlns="http://www.w3.org/2000/svg" width="183.1" height="183.1" version="1.1"><style>.s0{fill:#1a1a1a;}.s1{fill:#fff;}.s2{fill:#a05a2c;}.s3{-inkscape-font-specification:Sans;baseline-shift:baseline;block-progression:tb;direction:ltr;fill:#1a1a1a;font-family:Sans;font-size:medium;letter-spacing:normal;line-height:normal;text-align:start;text-anchor:start;text-decoration:none;text-indent:0;text-transform:none;word-spacing:normal;writing-mode:lr-tb;}</style><g transform="translate(-266.24472,-307.44425)"><path d="m449.35 399c0 50.56-40.99 91.55-91.55 91.55-50.56 0-91.55-40.99-91.55-91.55 0-50.56 40.99-91.55 91.55-91.55 50.56 0 91.55 40.99 91.55 91.55z" fill="#66c3c3"/><path d="m419.49 418.26c0 40.71-28.53 46.28-63.73 46.28-35.2 0-63.73-5.76-63.73-46.28 0-46.13 36.01-51.88 63.31-51.97 27.52-0.09 64.15 5.84 64.15 51.97z" fill="#1a1a1a"/><path d="m400.33 428.25c0 24.62-19.96 32.94-44.57 32.94-24.62 0-44.57-8.33-44.57-32.94 0-24.62 19.96-15.06 44.57-15.06 24.62 0 44.57-9.56 44.57 15.06z" fill="#8d5128"/><path d="m400.33 428.25c0 24.62-19.96 32.94-44.57 32.94-24.62 0-44.57-8.33-44.57-32.94 0-24.62 19.96-12.67 44.57-12.67 24.62 0 44.57-11.94 44.57 12.67z" fill="#e9c6af"/><path d="m336.07 429.3c0 5.06-2.54 9.17-5.67 9.17-3.13 0-5.67-4.1-5.67-9.17 0-5.06 2.54-9.17 5.67-9.17 3.13 0 5.67 4.1 5.67 9.17z" fill="#fff"/><path d="m334.43 429.3c0 3.6-1.8 6.51-4.03 6.51-2.22 0-4.03-2.92-4.03-6.51 0-3.6 1.8-6.51 4.03-6.51 2.22 0 4.03 2.92 4.03 6.51z" fill="#a05a2c"/><path d="m329.1 423.84c0 0 0.04 0.69 1.31 0.99 0 0-1.28 0.62-1.45 2.77l-1.63-0.62c0.06-2.33 1.77-3.14 1.77-3.14zM388.36 429.3 388.36 429.3 388.36 429.3 388.36 429.3" fill="#fff"/><path d="m388.36 429.3c0 5.06-2.54 9.17-5.67 9.17-3.13 0-5.67-4.1-5.67-9.17 0-5.06 2.54-9.17 5.67-9.17 3.13 0 5.67 4.1 5.67 9.17z" fill="#fff"/><path d="m386.72 429.3c0 3.6-1.8 6.51-4.03 6.51-2.22 0-4.03-2.92-4.03-6.51 0-3.6 1.8-6.51 4.03-6.51 2.22 0 4.03 2.92 4.03 6.51z" fill="#a05a2c"/><path d="m381.39 423.84c0 0 0.04 0.69 1.31 0.99 0 0-1.28 0.62-1.45 2.77l-1.63-0.62c0.06-2.33 1.77-3.14 1.77-3.14z" fill="#fff"/><path d="m358.37 438.66c0 1.45-1.17 2.62-2.62 2.62-1.45 0-2.62-1.17-2.62-2.62 0-1.45 1.17-2.62 2.62-2.62 1.45 0 2.62 1.17 2.62 2.62z" fill="#a05a2c"/><path d="m349.45 446.58c0 0 1.39 4.2 6.3 4.2 4.91 0 6.3-4.2 6.3-4.2" style="fill:none;stroke-linecap:round;stroke-width:1.8;stroke:#a05a2c"/><path d="m341.73 371.36 6.69-28.68 6.69-28.68 6.69 28.68 6.69 28.68-13.39 0zM389 381.69 389 381.69 389 381.69 389 381.69" fill="#1a1a1a"/><path d="m389 381.69c6.83-12.11 14.28-17.11 26.4-15.24 7.49 9.89 5.83 20.39 0 30.49l-13.2-7.62z" fill="#1a1a1a"/><path d="m325.75 381.06c-6.83-12.11-14.28-17.11-26.4-15.24-7.49 9.89-5.83 20.39 0 30.49l13.2-7.62z" fill="#1a1a1a"/><path d="m302.54 433.32c-10.91 0.08-20.38 1.06-28.55 2.54 0.16 0.36 0.3 0.73 0.47 1.09 8.63-1.55 18.73-2.55 30.45-2.49a0.57 0.57 0 1 0 0.02-1.15c-0.80-1.59-0.01-2.38 0zM308.66 435.63 308.66 435.63 308.66 435.63 308.66 435.63" class="s3"/><path d="m308.66 435.63c-12.93 0.87-23.61 2.83-32.31 5.21 0.15 0.3 0.31 0.58 0.47 0.88 8.59-2.33 19.14-4.24 31.9-5.1a0.49 0.49 0 1 0-0.05-0.98z" class="s3"/><path d="m413.04 433.32c10.91 0.08 20.38 1.06 28.55 2.54-0.16 0.36-0.3 0.73-0.47 1.09-8.63-1.55-18.73-2.55-30.45-2.49a0.57 0.57 0 1 1-0.02-1.15c0.80 1.59-0.01 2.38 0z" class="s3"/><path d="m406.91 435.63c12.93 0.87 23.61 2.83 32.31 5.21-0.15 0.3-0.31 0.58-0.47 0.88-8.59-2.33-19.14-4.24-31.9-5.1a0.49 0.49 0 1 1 0.05-0.98z" class="s3"/></g></svg>