<?xml version="1.0" standalone="no"?>
<!DOCTYPE svg PUBLIC "-//W3C//DTD SVG 20010904//EN"
 "http://www.w3.org/TR/2001/REC-SVG-20010904/DTD/svg10.dtd">
<svg version="1.0" xmlns="http://www.w3.org/2000/svg"
 width="700.000000pt" height="700.000000pt" viewBox="0 0 700.000000 700.000000"
 preserveAspectRatio="xMidYMid meet">
<metadata>
Created by potrace 1.11, written by Peter Selinger 2001-2013
</metadata>
<g transform="translate(0.000000,700.000000) scale(0.100000,-0.100000)"
fill="#000000" stroke="none">
<path d="M3270 6994 c-19 -2 -84 -9 -145 -15 -462 -46 -955 -205 -1358 -438
l-108 -62 -48 35 c-159 117 -387 175 -576 146 -331 -50 -576 -260 -677 -580
-20 -65 -23 -96 -23 -225 0 -129 3 -160 23 -225 28 -88 71 -176 118 -243 19
-26 34 -51 34 -56 0 -5 -26 -54 -57 -108 -227 -392 -373 -848 -435 -1353 -17
-138 -17 -602 0 -740 61 -499 201 -940 423 -1333 492 -871 1324 -1494 2284
-1711 275 -62 458 -81 775 -81 465 0 829 65 1240 222 688 263 1269 727 1674
1338 321 483 494 962 568 1565 17 138 17 602 0 740 -54 440 -156 791 -337
1165 -449 923 -1300 1613 -2290 1859 -294 73 -484 97 -805 101 -135 2 -261 1
-280 -1z m626 -308 c944 -124 1762 -632 2281 -1416 285 -431 448 -882 515
-1430 27 -224 15 -614 -28 -875 -212 -1296 -1228 -2348 -2519 -2609 -238 -49
-360 -60 -645 -60 -285 0 -407 11 -645 60 -1226 248 -2207 1208 -2484 2429
-55 244 -76 437 -76 715 0 421 57 741 202 1130 52 141 194 441 231 488 l19 24
69 -30 c211 -89 460 -86 662 8 300 140 487 449 469 775 -6 104 -39 241 -78
317 -11 22 -19 41 -17 43 18 15 187 105 269 144 330 156 683 256 1024 290 61
6 126 13 145 15 74 9 500 -4 606 -18z"/>
<path d="M3344 5000 c-186 -20 -355 -70 -526 -157 -147 -75 -264 -160 -383
-278 -463 -464 -575 -1162 -278 -1747 75 -147 160 -264 278 -383 464 -464
1162 -575 1747 -278 147 75 264 160 383 278 463 464 575 1162 278 1747 -75
147 -160 264 -278 383 -324 323 -770 482 -1221 435z"/>
</g>
</svg>
