<?xml version="1.0" encoding="utf-8"?>
<!-- Generated by IcoMoon.io -->
<!DOCTYPE svg PUBLIC "-//W3C//DTD SVG 1.1//EN" "http://www.w3.org/Graphics/SVG/1.1/DTD/svg11.dtd">
<svg version="1.1" xmlns="http://www.w3.org/2000/svg" xmlns:xlink="http://www.w3.org/1999/xlink" width="42" height="42" viewBox="0 0 42 42">
<path fill="#444" d="M33.25 7q0.752 0 1.251 0.499t0.499 1.251q0 0.738-0.506 1.244l-11.020 11.006 11.020 11.006q0.506 0.506 0.506 1.244 0 0.752-0.499 1.251t-1.251 0.499q-0.738 0-1.244-0.506l-11.006-11.020-11.006 11.020q-0.506 0.506-1.244 0.506-0.752 0-1.251-0.499t-0.499-1.251q0-0.738 0.506-1.244l11.020-11.006-11.020-11.006q-0.506-0.506-0.506-1.244 0-0.752 0.499-1.251t1.251-0.499q0.738 0 1.244 0.506l11.006 11.020 11.006-11.020q0.506-0.506 1.244-0.506z"></path>
</svg>
