<?xml version="1.0" encoding="utf-8"?>
<!-- Generated by IcoMoon.io -->
<!DOCTYPE svg PUBLIC "-//W3C//DTD SVG 1.1//EN" "http://www.w3.org/Graphics/SVG/1.1/DTD/svg11.dtd">
<svg version="1.1" xmlns="http://www.w3.org/2000/svg" xmlns:xlink="http://www.w3.org/1999/xlink" width="42" height="42" viewBox="0 0 42 42">
<path fill="#444" d="M14 5.25h22.75q2.174 0 3.712 1.538t1.538 3.712v21q0 2.174-1.538 3.712t-3.712 1.538h-22.75l-14-15.75zM36.75 8.75h-21.178l-10.883 12.25 10.883 12.25h21.178q0.725 0 1.237-0.513t0.513-1.237v-21q0-0.725-0.513-1.237t-1.237-0.513zM33.25 15.75q0 0.738-0.506 1.244l-4.020 4.006 4.020 4.006q0.506 0.506 0.506 1.244 0 0.752-0.499 1.251t-1.251 0.499q-0.738 0-1.244-0.506l-4.006-4.020-4.006 4.020q-0.506 0.506-1.244 0.506-0.725 0-1.237-0.513t-0.513-1.237q0-0.711 0.506-1.244l4.020-4.006-4.020-4.006q-0.506-0.533-0.506-1.244 0-0.725 0.513-1.237t1.237-0.513q0.738 0 1.244 0.506l4.006 4.020 4.006-4.020q0.506-0.506 1.244-0.506 0.752 0 1.251 0.499t0.499 1.251z"></path>
</svg>
