<?xml version="1.0" encoding="utf-8"?>
<!-- Generated by IcoMoon.io -->
<!DOCTYPE svg PUBLIC "-//W3C//DTD SVG 1.1//EN" "http://www.w3.org/Graphics/SVG/1.1/DTD/svg11.dtd">
<svg version="1.1" xmlns="http://www.w3.org/2000/svg" xmlns:xlink="http://www.w3.org/1999/xlink" width="36" height="28" viewBox="0 0 36 28">
<path fill="#444" d="M22.453 14.266q0 3.25-1.359 5.789t-3.875 3.969-5.766 1.43q-2.328 0-4.453-0.906t-3.656-2.438-2.438-3.656-0.906-4.453 0.906-4.453 2.438-3.656 3.656-2.438 4.453-0.906q4.469 0 7.672 3l-3.109 2.984q-1.828-1.766-4.562-1.766-1.922 0-3.555 0.969t-2.586 2.633-0.953 3.633 0.953 3.633 2.586 2.633 3.555 0.969q1.297 0 2.383-0.359t1.789-0.898 1.227-1.227 0.766-1.297 0.336-1.156h-6.5v-3.938h10.813q0.187 0.984 0.187 1.906zM36 12.359v3.281h-3.266v3.266h-3.281v-3.266h-3.266v-3.281h3.266v-3.266h3.281v3.266h3.266z"></path>
</svg>
