<?xml version="1.0" encoding="utf-8"?>
<!-- Generated by IcoMoon.io -->
<!DOCTYPE svg PUBLIC "-//W3C//DTD SVG 1.1//EN" "http://www.w3.org/Graphics/SVG/1.1/DTD/svg11.dtd">
<svg version="1.1" xmlns="http://www.w3.org/2000/svg" xmlns:xlink="http://www.w3.org/1999/xlink" width="42" height="42" viewBox="0 0 42 42">
<path fill="#444" d="M30.898 3.5q2.857 0 5.271 1.408t3.821 3.821 1.408 5.271q0 2.051-0.786 3.985t-2.29 3.438l-17.322 17.322-17.322-17.322q-1.504-1.504-2.29-3.438t-0.786-3.985q0-2.857 1.408-5.271t3.821-3.821 5.271-1.408q2.064 0 3.985 0.779t3.438 2.297l2.475 2.475 2.475-2.475q1.504-1.504 3.438-2.29t3.985-0.786zM30.898 7q-1.367 0-2.652 0.52t-2.297 1.531l-4.949 4.949-4.949-4.949q-1.012-1.012-2.297-1.531t-2.652-0.52q-1.914 0-3.52 0.937t-2.543 2.543-0.937 3.52q0 1.367 0.52 2.652t1.531 2.297l14.848 14.848 14.848-14.848q1.012-1.012 1.531-2.297t0.52-2.652q0-1.914-0.937-3.52t-2.543-2.543-3.52-0.937z"></path>
</svg>
