<?xml version="1.0" encoding="utf-8"?>
<!-- Generated by IcoMoon.io -->
<!DOCTYPE svg PUBLIC "-//W3C//DTD SVG 1.1//EN" "http://www.w3.org/Graphics/SVG/1.1/DTD/svg11.dtd">
<svg version="1.1" xmlns="http://www.w3.org/2000/svg" xmlns:xlink="http://www.w3.org/1999/xlink" width="42" height="42" viewBox="0 0 42 42">
<path fill="#444" d="M25.261 22.703c0.471 0 0.861 0.233 1.2 0.693 0.336 0.464 0.515 1.029 0.515 1.706 0 0.674-0.178 1.244-0.515 1.703-0.338 0.464-0.73 0.693-1.2 0.693-0.486 0-0.914-0.229-1.251-0.693-0.336-0.459-0.514-1.029-0.514-1.703 0-0.677 0.178-1.242 0.514-1.706 0.336-0.462 0.763-0.693 1.251-0.693zM31.281 16.474c1.305 1.419 1.969 3.141 1.969 5.168 0 1.309-0.15 2.49-0.453 3.54-0.306 1.045-0.69 1.897-1.145 2.553-0.462 0.658-1.029 1.234-1.704 1.731-0.675 0.501-1.297 0.861-1.864 1.090-0.569 0.231-1.216 0.408-1.944 0.536-0.73 0.124-1.27 0.194-1.65 0.215-0.373 0.016-0.767 0.024-1.199 0.024-0.096 0-0.425 0.007-0.957 0.026-0.527 0.023-0.98 0.028-1.334 0.028s-0.807-0.005-1.334-0.028c-0.532-0.019-0.861-0.026-0.957-0.026-0.431 0-0.826-0.009-1.199-0.024-0.381-0.021-0.921-0.091-1.65-0.215-0.74-0.126-1.376-0.305-1.944-0.536-0.567-0.229-1.19-0.59-1.862-1.090-0.677-0.497-1.244-1.073-1.706-1.731-0.457-0.656-0.838-1.509-1.144-2.553-0.303-1.050-0.453-2.231-0.453-3.54 0-2.027 0.663-3.75 1.969-5.168-0.144-0.072-0.149-0.782-0.014-2.13 0.11-1.349 0.397-2.594 0.866-3.731 1.635 0.173 3.657 1.101 6.074 2.767 0.816-0.208 1.927-0.32 3.355-0.32 1.491 0 2.609 0.112 3.357 0.322 1.101-0.744 2.152-1.349 3.159-1.809 1.022-0.457 1.759-0.728 2.221-0.8l0.693-0.157c0.473 1.136 0.759 2.38 0.868 3.731 0.133 1.346 0.128 2.056-0.016 2.128zM21.052 30.159c2.954 0 5.169-0.354 6.687-1.062 1.496-0.707 2.261-2.166 2.261-4.368 0-1.278-0.478-2.345-1.439-3.199-0.486-0.46-1.073-0.744-1.731-0.851-0.656-0.107-1.661-0.107-3.010 0-1.346 0.108-2.271 0.157-2.769 0.157-0.674 0-1.4-0.031-2.308-0.103-0.91-0.070-1.624-0.114-2.14-0.136-0.514-0.016-1.066 0.047-1.677 0.189-0.604 0.144-1.101 0.392-1.493 0.744-0.912 0.821-1.383 1.885-1.383 3.199 0 2.202 0.745 3.661 2.24 4.368 1.488 0.709 3.698 1.062 6.654 1.062h0.107zM16.793 22.703c0.469 0 0.861 0.233 1.199 0.693 0.336 0.464 0.515 1.029 0.515 1.706 0 0.674-0.178 1.244-0.515 1.703-0.336 0.464-0.73 0.693-1.199 0.693-0.488 0-0.914-0.229-1.253-0.693-0.336-0.459-0.514-1.029-0.514-1.703 0-0.677 0.178-1.242 0.514-1.706 0.338-0.462 0.763-0.693 1.253-0.693z"></path>
</svg>
