<?xml version="1.0" encoding="utf-8"?>
<!-- Generated by IcoMoon.io -->
<!DOCTYPE svg PUBLIC "-//W3C//DTD SVG 1.1//EN" "http://www.w3.org/Graphics/SVG/1.1/DTD/svg11.dtd">
<svg version="1.1" xmlns="http://www.w3.org/2000/svg" xmlns:xlink="http://www.w3.org/1999/xlink" width="42" height="42" viewBox="0 0 42 42">
<path fill="#444" d="M26.738 17.995c0.627-0.387 1.045-0.912 1.248-1.582-0.611 0.325-1.22 0.546-1.829 0.67-0.546-0.588-1.239-0.887-2.069-0.887-0.812 0-1.496 0.285-2.056 0.838-0.555 0.556-0.837 1.236-0.837 2.027 0 0.24 0.030 0.455 0.091 0.637-2.394-0.084-4.373-1.074-5.934-2.985-0.264 0.467-0.397 0.943-0.397 1.435 0 1.011 0.427 1.813 1.278 2.403-0.485-0.040-0.912-0.165-1.278-0.366 0 0.723 0.212 1.326 0.639 1.858 0.425 0.525 0.975 0.861 1.643 1.003-0.243 0.063-0.499 0.093-0.761 0.093-0.245 0-0.415-0.021-0.518-0.065 0.182 0.59 0.518 1.066 1.005 1.431 0.485 0.368 1.045 0.56 1.675 0.578-1.034 0.814-2.221 1.215-3.561 1.215-0.329 0-0.56-0.003-0.7-0.030 1.32 0.856 2.79 1.283 4.412 1.283 1.664 0 3.136-0.422 4.413-1.265 1.278-0.838 2.224-1.872 2.83-3.092 0.609-1.216 0.912-2.483 0.912-3.804v-0.366c0.588-0.443 1.066-0.942 1.431-1.494-0.522 0.233-1.069 0.389-1.636 0.467z"></path>
<path fill="#444" d="M21 36.75c-4.358 0-8.111-1.557-11.158-4.63-3.047-3.064-4.592-6.806-4.592-11.12 0-4.354 1.547-8.109 4.597-11.156 3.045-3.047 6.797-4.594 11.153-4.594 4.316 0 8.057 1.545 11.12 4.592 3.073 3.048 4.63 6.804 4.63 11.158 0 4.314-1.556 8.057-4.627 11.125-3.064 3.068-6.806 4.625-11.123 4.625zM21 8.75c-3.441 0-6.279 1.167-8.676 3.57-2.406 2.401-3.573 5.239-3.573 8.68 0 3.402 1.169 6.234 3.575 8.654 2.401 2.42 5.238 3.596 8.675 3.596 3.4 0 6.23-1.178 8.649-3.6 2.424-2.422 3.601-5.253 3.601-8.65 0-3.435-1.176-6.274-3.596-8.675-2.42-2.406-5.25-3.575-8.654-3.575z"></path>
</svg>
