<?xml version="1.0" encoding="utf-8"?>
<!-- Generated by IcoMoon.io -->
<!DOCTYPE svg PUBLIC "-//W3C//DTD SVG 1.1//EN" "http://www.w3.org/Graphics/SVG/1.1/DTD/svg11.dtd">
<svg version="1.1" xmlns="http://www.w3.org/2000/svg" xmlns:xlink="http://www.w3.org/1999/xlink" width="42" height="42" viewBox="0 0 42 42">
<path fill="#444" d="M32.12 9.842c-3.063-3.047-6.804-4.592-11.12-4.592-4.356 0-8.108 1.547-11.153 4.594-3.050 3.047-4.597 6.802-4.597 11.156 0 4.314 1.545 8.055 4.592 11.12 3.047 3.073 6.801 4.63 11.158 4.63 4.317 0 8.059-1.557 11.123-4.625 3.071-3.068 4.627-6.811 4.627-11.125 0-4.354-1.557-8.109-4.63-11.158zM29.649 29.65c-1.99 1.993-4.263 3.129-6.898 3.474v-8.624h3.5v-3.5h-3.5v-2.45c0-0.579 0.471-1.050 1.052-1.050h2.448v-3.5h-2.445c-1.299 0-2.382 0.478-3.25 1.438-0.868 0.957-1.305 2.126-1.305 3.514v2.047h-3.5v3.5h3.5v8.628c-2.664-0.341-4.945-1.479-6.925-3.472-2.406-2.422-3.575-5.253-3.575-8.655 0-3.441 1.167-6.279 3.573-8.68 2.397-2.403 5.236-3.57 8.676-3.57 3.404 0 6.234 1.169 8.654 3.575 2.42 2.401 3.596 5.239 3.596 8.675 0 3.397-1.178 6.228-3.602 8.65z"></path>
</svg>
